<?xml version="1.0" encoding="utf-8"?>
<!-- Uploaded to: SVG Repo, www.svgrepo.com, Generator: SVG Repo Mixer Tools -->
<svg width="800px" height="800px" viewBox="-31.01 0 234.8 234.8" xmlns="http://www.w3.org/2000/svg">

<defs>

<style>.cls-1{fill:#ffffff;}</style>

</defs>

<g id="Layer_2" data-name="Layer 2">

<g id="Layer_1-2" data-name="Layer 1">

<path d="M129,78.41c2.28,1.44,4.66,3,7.09,4.47,13.43,8.18,22.77,19.8,28.79,34.21,4.77,11.44,8.32,23.18,7.87,35.73A46.06,46.06,0,0,1,171,163.76a118.51,118.51,0,0,1-14,31.19,88.44,88.44,0,0,1-29.15,28.51c-9.66,5.82-20.7,7.86-31.67,10.18-17.12,3.62-32.19-1.7-47-9.13a63.35,63.35,0,0,1-17-13c-7.37-7.57-14.88-15.1-20.13-24.42-2.39-4.23-4.53-8.62-6.54-13-5.2-11.49-6.39-23.47-5.13-36C1.91,123.79,7.29,111,13.7,98.5c3.9-7.59,9.87-13.28,17-17.83a77.74,77.74,0,0,1,32.76-12c2.81-.34,5.61-.76,8.93-1.22l4.16-21c.5-2.52,1.1-5,1.52-7.58.73-4.46,3.49-7.18,7.6-8.41,3.26-1,6.67-1.43,10.22-2.16,3.24-5,6.62-10.26,10-15.5,3.2-5,8-8.19,12.85-11.2,5.84-3.65,12.91-1,15.64,5.44a6.29,6.29,0,0,1-.55,6.53,37.9,37.9,0,0,1-3.27,4c-6.21,6.35-6.23,6.33-8.49,15.52,3.74,1.22,7.1,3,9.67,6.41,3.26,4.37,4.25,8.88,2.18,13.67-3.25,7.5-3.67,15.54-5.21,23.36A5.8,5.8,0,0,0,129,78.41Zm-57.13-.25a69.29,69.29,0,0,0-33.21,9.58C32.8,91.23,27.3,95.4,23.6,101.51a111.18,111.18,0,0,0-13.39,33.33C6,154,10.44,171.64,22,187.64c3.74,5.2,8.39,9.3,13.11,13.4,4.52,3.93,8.94,8.15,14,11.23,12.88,7.8,26.37,13.91,42.14,10.52.83-.18,1.72-.07,2.57-.18,14.08-1.94,27.48-5.56,38.59-15.14,9.65-8.33,18.12-17.62,22.57-29.76a110.94,110.94,0,0,0,6.38-33.63c.29-7-1-13.79-4.75-19.74a175.36,175.36,0,0,0-12.34-17.49,60,60,0,0,0-22.42-17.32c-8.13,3.3-16.95,3.35-25.86,2.94a23.5,23.5,0,0,1-9.84-2.64C80.71,87,76.27,83,71.87,78.16ZM121.26,58.7a33.06,33.06,0,0,0-3.57,0c-9.8,1-19.39.46-28.54-3.65a7.07,7.07,0,0,0-3.23-1c-.92.09-2.4,1-2.53,1.71-.83,4.76-1.3,9.58-2,14.36-.53,3.5.91,6,3.48,8.21,9.16,7.88,19.56,8.54,30.55,5.18a6,6,0,0,0,3.37-3.5A99.51,99.51,0,0,0,122.25,60C122.27,59.76,121.93,59.53,121.26,58.7ZM109.91,40.48c3.31-10.49,6.31-20.61,14.44-28.1a3.19,3.19,0,0,0,.21-3c-1-1.75-2.53-.85-3.61,0-8.91,7.28-15.27,16.05-16.3,28.31ZM93.33,36.36c-3.13-.17-4.58,1.27-5,3.85a4.89,4.89,0,0,0,2.23,5.2C100.26,51.61,111,52,122,50.57c2.43-.32,3.49-2.94,2.28-5.36-.55-1.11-1.85-1.84-3.26-3.16-3.21,6-8.25,6.64-13.51,5.82-5.1-.79-9.94-2.55-13.5-6.29C93.73,39.6,93.53,38,93.33,36.36Z"/>

<path class="cls-1" d="M71.87,78.16C76.27,83,80.71,87,86.12,89.83A23.5,23.5,0,0,0,96,92.47c8.91.41,17.73.36,25.86-2.94a60,60,0,0,1,22.42,17.32,175.36,175.36,0,0,1,12.34,17.49c3.77,5.95,5,12.74,4.75,19.74A110.94,110.94,0,0,1,155,177.71c-4.45,12.14-12.92,21.43-22.57,29.76-11.11,9.58-24.51,13.2-38.59,15.14-.85.11-1.74,0-2.57.18-15.77,3.39-29.26-2.72-42.14-10.52-5.08-3.08-9.5-7.3-14-11.23-4.72-4.1-9.37-8.2-13.11-13.4-11.51-16-16-33.69-11.74-52.8A111.18,111.18,0,0,1,23.6,101.51c3.7-6.11,9.2-10.28,15.06-13.77A69.29,69.29,0,0,1,71.87,78.16Z"/>

<path class="cls-1" d="M121.26,58.7c.67.83,1,1.06,1,1.25A99.51,99.51,0,0,1,118.78,80a6,6,0,0,1-3.37,3.5c-11,3.36-21.39,2.7-30.55-5.18-2.57-2.22-4-4.71-3.48-8.21.71-4.78,1.18-9.6,2-14.36.13-.73,1.61-1.62,2.53-1.71a7.07,7.07,0,0,1,3.23,1c9.15,4.11,18.74,4.65,28.54,3.65A33.06,33.06,0,0,1,121.26,58.7Z"/>

<path class="cls-1" d="M109.91,40.48l-5.26-2.76c1-12.26,7.39-21,16.3-28.31,1.08-.88,2.61-1.78,3.61,0a3.19,3.19,0,0,1-.21,3C116.22,19.87,113.22,30,109.91,40.48Z"/>

<path class="cls-1" d="M93.33,36.36c.2,1.61.4,3.24.65,5.22,3.56,3.74,8.4,5.5,13.5,6.29,5.26.82,10.3.14,13.51-5.82,1.41,1.32,2.71,2.05,3.26,3.16,1.21,2.42.15,5-2.28,5.36-11,1.45-21.71,1-31.43-5.16a4.89,4.89,0,0,1-2.23-5.2C88.75,37.63,90.2,36.19,93.33,36.36Z"/>

</g>

</g>

</svg>